<svg width="105" height="28" viewBox="0 0 105 28" fill="none" xmlns="http://www.w3.org/2000/svg">
<rect width="105" height="28" rx="8" fill="#D77070"/>
<path d="M24.291 13.164C23.9118 12.3106 23.3606 11.5447 22.6719 10.914L22.1035 10.3926C22.0842 10.3753 22.061 10.3631 22.0359 10.357C22.0107 10.3508 21.9845 10.3509 21.9594 10.3573C21.9344 10.3637 21.9112 10.3761 21.8921 10.3935C21.8729 10.4108 21.8584 10.4327 21.8496 10.457L21.5957 11.1855C21.4375 11.6426 21.1465 12.1094 20.7344 12.5683C20.707 12.5976 20.6758 12.6054 20.6543 12.6074C20.6328 12.6094 20.5996 12.6054 20.5703 12.5781C20.543 12.5547 20.5293 12.5195 20.5312 12.4844C20.6035 11.3086 20.252 9.9824 19.4824 8.53904C18.8457 7.33982 17.9609 6.40427 16.8555 5.75193L16.0488 5.27732C15.9434 5.21482 15.8086 5.29685 15.8145 5.4199L15.8574 6.3574C15.8867 6.99802 15.8125 7.56443 15.6367 8.03513C15.4219 8.6113 15.1133 9.14646 14.7188 9.62693C14.4442 9.96084 14.133 10.2629 13.791 10.5273C12.9674 11.1605 12.2977 11.9717 11.832 12.9004C11.3675 13.8371 11.1256 14.8685 11.125 15.914C11.125 16.8359 11.3066 17.7285 11.666 18.5703C12.013 19.3808 12.5138 20.1163 13.1406 20.7363C13.7734 21.3613 14.5078 21.8535 15.3262 22.1953C16.1738 22.5508 17.0723 22.7304 18 22.7304C18.9277 22.7304 19.8262 22.5508 20.6738 22.1972C21.4902 21.8574 22.2325 21.3619 22.8594 20.7383C23.4922 20.1133 23.9883 19.3828 24.334 18.5722C24.6928 17.7327 24.8769 16.829 24.875 15.916C24.875 14.9629 24.6797 14.0371 24.291 13.164ZM21.9258 19.791C20.877 20.8301 19.4844 21.4004 18 21.4004C16.5156 21.4004 15.123 20.8301 14.0742 19.791C13.0293 18.7539 12.4531 17.3789 12.4531 15.916C12.4531 15.0664 12.6445 14.2519 13.0215 13.4941C13.3887 12.7539 13.9355 12.0918 14.5996 11.582C15.0231 11.2582 15.4072 10.8858 15.7441 10.4726C16.2324 9.87693 16.6152 9.21287 16.8809 8.49998C16.9898 8.20591 17.069 7.90165 17.1172 7.59177C17.5879 8.02537 17.9824 8.5488 18.3125 9.16209C18.9648 10.3847 19.2656 11.4726 19.207 12.3984C19.193 12.6165 19.2286 12.8348 19.3112 13.0371C19.3937 13.2394 19.5211 13.4204 19.6836 13.5664C19.8245 13.6936 19.9892 13.7916 20.1682 13.8546C20.3473 13.9177 20.5371 13.9445 20.7266 13.9336C21.1113 13.914 21.4648 13.7441 21.7227 13.457C21.9824 13.166 22.207 12.8691 22.3945 12.5664C22.668 12.916 22.8965 13.2969 23.0781 13.707C23.3887 14.4062 23.5469 15.1504 23.5469 15.916C23.5469 17.3789 22.9707 18.7558 21.9258 19.791Z" fill="#FEFEFE"/>
<path d="M40.28 10.324V19H38.66V15.208H34.586V19H32.966V10.324H34.586V14.056H38.66V10.324H40.28ZM50.4861 14.662C50.4861 15.298 50.3801 15.888 50.1681 16.432C49.9601 16.972 49.6641 17.44 49.2801 17.836C48.8961 18.232 48.4341 18.542 47.8941 18.766C47.3541 18.986 46.7541 19.096 46.0941 19.096C45.4381 19.096 44.8401 18.986 44.3001 18.766C43.7601 18.542 43.2961 18.232 42.9081 17.836C42.5241 17.44 42.2261 16.972 42.0141 16.432C41.8021 15.888 41.6961 15.298 41.6961 14.662C41.6961 14.026 41.8021 13.438 42.0141 12.898C42.2261 12.354 42.5241 11.884 42.9081 11.488C43.2961 11.092 43.7601 10.784 44.3001 10.564C44.8401 10.34 45.4381 10.228 46.0941 10.228C46.5341 10.228 46.9481 10.28 47.3361 10.384C47.7241 10.484 48.0801 10.628 48.4041 10.816C48.7281 11 49.0181 11.226 49.2741 11.494C49.5341 11.758 49.7541 12.054 49.9341 12.382C50.1141 12.71 50.2501 13.066 50.3421 13.45C50.4381 13.834 50.4861 14.238 50.4861 14.662ZM48.8361 14.662C48.8361 14.186 48.7721 13.76 48.6441 13.384C48.5161 13.004 48.3341 12.682 48.0981 12.418C47.8621 12.154 47.5741 11.952 47.2341 11.812C46.8981 11.672 46.5181 11.602 46.0941 11.602C45.6701 11.602 45.2881 11.672 44.9481 11.812C44.6121 11.952 44.3241 12.154 44.0841 12.418C43.8481 12.682 43.6661 13.004 43.5381 13.384C43.4101 13.76 43.3461 14.186 43.3461 14.662C43.3461 15.138 43.4101 15.566 43.5381 15.946C43.6661 16.322 43.8481 16.642 44.0841 16.906C44.3241 17.166 44.6121 17.366 44.9481 17.506C45.2881 17.646 45.6701 17.716 46.0941 17.716C46.5181 17.716 46.8981 17.646 47.2341 17.506C47.5741 17.366 47.8621 17.166 48.0981 16.906C48.3341 16.642 48.5161 16.322 48.6441 15.946C48.7721 15.566 48.8361 15.138 48.8361 14.662ZM57.6705 11.65H55.0545V19H53.4405V11.65H50.8245V10.324H57.6705V11.65ZM65.9805 11.902C65.9325 11.986 65.8805 12.048 65.8245 12.088C65.7725 12.124 65.7065 12.142 65.6265 12.142C65.5425 12.142 65.4505 12.112 65.3505 12.052C65.2545 11.988 65.1385 11.918 65.0025 11.842C64.8665 11.766 64.7065 11.698 64.5225 11.638C64.3425 11.574 64.1285 11.542 63.8805 11.542C63.6565 11.542 63.4605 11.57 63.2925 11.626C63.1245 11.678 62.9825 11.752 62.8665 11.848C62.7545 11.944 62.6705 12.06 62.6145 12.196C62.5585 12.328 62.5305 12.474 62.5305 12.634C62.5305 12.838 62.5865 13.008 62.6985 13.144C62.8145 13.28 62.9665 13.396 63.1545 13.492C63.3425 13.588 63.5565 13.674 63.7965 13.75C64.0365 13.826 64.2825 13.908 64.5345 13.996C64.7865 14.08 65.0325 14.18 65.2725 14.296C65.5125 14.408 65.7265 14.552 65.9145 14.728C66.1025 14.9 66.2525 15.112 66.3645 15.364C66.4805 15.616 66.5385 15.922 66.5385 16.282C66.5385 16.674 66.4705 17.042 66.3345 17.386C66.2025 17.726 66.0065 18.024 65.7465 18.28C65.4905 18.532 65.1765 18.732 64.8045 18.88C64.4325 19.024 64.0065 19.096 63.5265 19.096C63.2505 19.096 62.9785 19.068 62.7105 19.012C62.4425 18.96 62.1845 18.884 61.9365 18.784C61.6925 18.684 61.4625 18.564 61.2465 18.424C61.0305 18.284 60.8385 18.128 60.6705 17.956L61.1445 17.182C61.1845 17.126 61.2365 17.08 61.3005 17.044C61.3645 17.004 61.4325 16.984 61.5045 16.984C61.6045 16.984 61.7125 17.026 61.8285 17.11C61.9445 17.19 62.0825 17.28 62.2425 17.38C62.4025 17.48 62.5885 17.572 62.8005 17.656C63.0165 17.736 63.2745 17.776 63.5745 17.776C64.0345 17.776 64.3905 17.668 64.6425 17.452C64.8945 17.232 65.0205 16.918 65.0205 16.51C65.0205 16.282 64.9625 16.096 64.8465 15.952C64.7345 15.808 64.5845 15.688 64.3965 15.592C64.2085 15.492 63.9945 15.408 63.7545 15.34C63.5145 15.272 63.2705 15.198 63.0225 15.118C62.7745 15.038 62.5305 14.942 62.2905 14.83C62.0505 14.718 61.8365 14.572 61.6485 14.392C61.4605 14.212 61.3085 13.988 61.1925 13.72C61.0805 13.448 61.0245 13.114 61.0245 12.718C61.0245 12.402 61.0865 12.094 61.2105 11.794C61.3385 11.494 61.5225 11.228 61.7625 10.996C62.0025 10.764 62.2985 10.578 62.6505 10.438C63.0025 10.298 63.4065 10.228 63.8625 10.228C64.3745 10.228 64.8465 10.308 65.2785 10.468C65.7105 10.628 66.0785 10.852 66.3825 11.14L65.9805 11.902ZM74.0065 11.65H71.3905V19H69.7765V11.65H67.1605V10.324H74.0065V11.65ZM78.6338 17.698C78.9458 17.698 79.2238 17.646 79.4678 17.542C79.7158 17.438 79.9238 17.292 80.0918 17.104C80.2598 16.916 80.3878 16.688 80.4758 16.42C80.5678 16.152 80.6138 15.852 80.6138 15.52V10.324H82.2278V15.52C82.2278 16.036 82.1438 16.514 81.9758 16.954C81.8118 17.39 81.5738 17.768 81.2618 18.088C80.9538 18.404 80.5778 18.652 80.1338 18.832C79.6898 19.008 79.1898 19.096 78.6338 19.096C78.0738 19.096 77.5718 19.008 77.1278 18.832C76.6838 18.652 76.3058 18.404 75.9938 18.088C75.6858 17.768 75.4478 17.39 75.2798 16.954C75.1158 16.514 75.0338 16.036 75.0338 15.52V10.324H76.6478V15.514C76.6478 15.846 76.6918 16.146 76.7798 16.414C76.8718 16.682 77.0018 16.912 77.1698 17.104C77.3418 17.292 77.5498 17.438 77.7938 17.542C78.0418 17.646 78.3218 17.698 78.6338 17.698ZM85.668 11.608V14.176H88.92V15.466H85.668V19H84.048V10.324H89.52V11.608H85.668ZM92.4649 11.608V14.176H95.7169V15.466H92.4649V19H90.8449V10.324H96.3169V11.608H92.4649Z" fill="#FEFEFE"/>
</svg>
